<?xml version="1.0" encoding="UTF-8" standalone="no"?><!DOCTYPE svg PUBLIC "-//W3C//DTD SVG 1.1//EN" "http://www.w3.org/Graphics/SVG/1.1/DTD/svg11.dtd"><svg width="100%" height="100%" viewBox="0 0 512 512" version="1.1" xmlns="http://www.w3.org/2000/svg" xmlns:xlink="http://www.w3.org/1999/xlink" xml:space="preserve" xmlns:serif="http://www.serif.com/" style="fill-rule:evenodd;clip-rule:evenodd;stroke-linejoin:round;stroke-miterlimit:2;"><rect id="safari-pinned-tab" x="0" y="0" width="512" height="512" style="fill:none;"/><clipPath id="_clip1"><rect id="safari-pinned-tab1" serif:id="safari-pinned-tab" x="0" y="0" width="512" height="512"/></clipPath><g clip-path="url(#_clip1)"><g id="Turtle-Mountain-sign" serif:id="Turtle Mountain sign"><path d="M253.699,56.933c4.784,-0 20.944,0.521 25.647,0.847l-3.567,-8.209c94.342,10.437 170.271,85.262 181.857,180.219l-5.085,-0.741c0.794,7.404 1.638,17.54 1.638,25.156c-0,6.446 -0.389,19.236 -0.96,25.533l5.754,-1.799c-9.961,98.176 -88.001,175.031 -185.62,183.952l1.953,-6.489c-3.449,0.172 -19.581,0.722 -23.068,0.722c-5.299,-0 -20.105,-0.894 -25.303,-1.286l1.641,6.84c-93.407,-11.133 -167.609,-84.796 -179.046,-179.121c-0.094,-0.773 -0.304,-2.586 -0.414,-3.358l7.112,2.543c-0.292,-6.205 -0.708,-18.99 -0.708,-24.528c-0,-5.527 0.214,-17.268 0.392,-23.18l-6.86,2.423c0.13,-1.397 0.128,-3.135 0.285,-4.523c10.921,-96.422 87.379,-172.837 183.175,-182.558l-4.388,8.178c5.437,-0.438 20.018,-0.621 25.565,-0.621Zm-0.032,4.333c-106.163,0 -192.353,87.138 -192.353,194.468c-0,107.33 86.19,194.468 192.353,194.468c106.163,-0 192.354,-87.138 192.354,-194.468c0,-107.33 -86.191,-194.468 -192.354,-194.468Zm-11.794,61.649c-0,-0 -1.699,-4.809 -2.245,-6.227c-0.546,-1.418 -1.82,-4.193 -2.729,-6.227c-0.91,-2.035 -1.456,-3.823 -1.396,-4.932c0.061,-1.11 0.728,-2.158 1.638,-4.008c0.91,-1.849 1.213,-3.144 2.487,-5.302c1.274,-2.158 1.456,-2.404 2.669,-5.117c1.214,-2.713 2.306,-4.87 3.337,-6.658c1.031,-1.788 1.577,-2.59 2.669,-5.056c1.092,-2.466 2.487,-4.377 3.821,-6.967c1.335,-2.589 3.579,-1.171 4.368,0c0.789,1.172 1.213,2.652 2.305,4.809c0.958,1.894 2.912,5.796 4.004,7.399c1.092,1.603 2.912,7.644 5.459,13.81c2.548,6.165 1.395,7.891 0.789,10.111c-0.607,2.219 -1.881,4.377 -2.669,7.213c-0.789,2.836 -2.002,5.857 -2.669,7.768c-0.668,1.911 -2.791,1.48 -4.247,1.11c-1.455,-0.37 -4.064,-0.678 -7.643,-0.37c-3.579,0.308 -5.641,0.74 -7.643,1.171c-2.002,0.432 -2.305,-2.527 -2.305,-2.527Zm7.34,-41.246c-0.546,1.233 -0.546,2.035 -1.153,3.268c-0.606,1.233 -1.152,2.158 -2.123,4.192c-0.971,2.035 -1.213,2.22 -2.184,4.316c-0.97,2.096 -1.516,2.651 -2.548,4.131c-1.031,1.479 -1.516,3.945 -2.123,5.61c-0.606,1.665 0.122,2.343 1.214,2.836c1.091,0.493 0.788,0.801 3.033,0.863c2.244,0.062 3.518,-0.74 4.549,-1.418c1.031,-0.678 1.759,-1.11 2.851,-2.713c1.092,-1.603 0.425,-2.342 0.971,-4.007c0.546,-1.665 1.82,-0.863 2.062,0.247c0.243,1.109 0.122,1.726 0.486,3.452c0.364,1.726 0.849,1.788 2.305,2.898c1.456,1.109 2.487,1.541 4.731,1.726c2.245,0.185 3.337,-0 4.974,-1.418c1.638,-1.418 0.971,-3.021 0.668,-4.439c-0.304,-1.418 -1.031,-1.85 -1.213,-3.637c-0.182,-1.788 -0.668,-2.343 -1.153,-3.638c-0.485,-1.295 -0.849,-1.973 -1.395,-3.452c-0.546,-1.48 -1.577,-3.145 -2.305,-4.624c-0.728,-1.48 -2.123,-4.008 -2.123,-4.008c-0,0 -2.427,-3.637 -3.822,-6.535c-1.395,-2.898 -2.73,0.987 -2.73,0.987l-2.972,5.363Zm-45.972,71.76c-0,-0 14.634,-12.793 18.501,-14.874c3.868,-2.081 13.043,-6.473 16.455,-7.706c3.412,-1.233 13.042,-4.085 15.696,-3.931c2.654,0.155 10.615,0.694 12.89,1.233c2.275,0.54 5.005,2.158 6.673,2.389c1.668,0.232 3.412,0.848 4.777,1.465c1.365,0.616 1.82,1.156 4.019,2.08c2.199,0.925 2.957,2.389 4.474,3.468c1.516,1.079 3.791,2.081 5.383,3.083c1.593,1.002 3.412,2.235 5.687,4.316c2.275,2.08 12.663,12.484 14.786,15.567c2.124,3.082 5.915,8.015 6.749,9.171c0.834,1.156 4.777,7.86 6.066,10.943c1.289,3.083 5.535,11.868 6.749,14.951c1.213,3.082 3.867,10.48 5.004,13.948c1.138,3.468 2.806,9.865 3.412,12.023c0.607,2.157 3.033,12.87 3.413,15.567c0.379,2.697 0.985,10.712 1.061,13.024c0.076,2.312 -0.227,5.086 -0.303,7.475c-0.076,2.389 0.076,8.092 -0.455,12.254c-0.531,4.161 -2.578,15.413 -3.337,18.11c-0.758,2.697 -0.834,4.084 -1.668,7.244c-0.834,3.16 -2.199,8.477 -2.654,10.866c-0.455,2.389 -1.364,6.551 -2.199,8.709c-0.834,2.157 -1.668,4.084 -2.578,6.473c-0.91,2.389 -1.971,5.164 -3.26,7.707c-1.289,2.543 -1.517,4.392 -2.957,6.55c-1.441,2.158 -2.882,5.087 -4.474,7.784c-1.593,2.697 -3.64,5.394 -4.853,7.321c-1.213,1.927 -2.427,4.162 -4.095,6.551c-1.668,2.389 -4.018,5.934 -5.99,8.246c-1.971,2.312 -3.791,3.313 -5.839,5.934c-2.047,2.62 -4.625,5.625 -7.203,7.937c-2.578,2.312 -4.474,3.237 -7.052,5.318c-2.578,2.081 -4.019,2.543 -7.507,4.393c-3.488,1.849 -6.218,3.082 -11.677,4.623c-5.46,1.542 -10.995,1.079 -14.18,1.388c-3.184,0.308 -9.933,-0.617 -13.952,-1.696c-4.018,-1.079 -8.265,-3.93 -10.767,-4.855c-2.502,-0.925 -4.398,-2.389 -6.445,-3.622c-2.048,-1.233 -4.474,-2.62 -6.749,-4.007c-2.275,-1.388 -4.701,-2.621 -6.597,-4.316c-1.895,-1.695 -3.867,-3.93 -5.838,-5.78c-1.972,-1.849 -6.37,-5.317 -8.038,-7.244c-1.668,-1.927 -3.64,-4.624 -5.459,-7.09c-1.82,-2.466 -3.488,-5.472 -4.929,-8.246c-1.441,-2.774 -3.033,-6.319 -4.55,-8.94c-1.516,-2.62 -2.654,-5.857 -3.943,-9.247c-1.289,-3.391 -3.109,-7.476 -4.246,-10.79c-1.137,-3.313 -2.199,-6.011 -2.957,-8.785c-0.758,-2.774 -1.668,-4.932 -2.73,-8.863c-1.062,-3.93 -1.516,-7.629 -2.275,-11.097c-0.758,-3.468 -1.444,-7.452 -1.744,-10.096c-0.455,-4.007 -1.061,-10.403 -1.061,-14.334c-0,-3.93 -0.455,-6.165 -0.455,-9.093c-0,-2.929 0.606,-8.401 1.516,-12.331c0.91,-3.93 1.138,-6.088 2.275,-10.481c1.137,-4.392 1.365,-6.242 2.199,-9.71c0.834,-3.468 1.82,-7.784 2.73,-10.635c0.91,-2.851 1.82,-4.778 2.957,-8.4c1.137,-3.622 2.047,-4.239 3.564,-8.169c1.516,-3.93 1.82,-4.778 3.488,-8.015c1.668,-3.237 2.275,-4.624 4.094,-7.706c1.82,-3.083 4.019,-7.167 6.142,-9.711c2.124,-2.543 3.413,-6.011 6.37,-9.093c2.957,-3.083 5.004,-5.78 7.886,-9.248Zm-4.963,10.079c-0.97,1.418 -3.094,5.302 -4.489,7.337c-1.395,2.034 -1.88,2.219 -3.882,4.623c-2.002,2.405 -2.487,4.069 -4.064,6.412c-1.578,2.343 -2.305,3.699 -3.822,6.474c-1.516,2.774 -2.426,5.98 -3.7,8.569c-1.274,2.59 -2.245,4.439 -2.912,5.796c-0.667,1.356 -0.91,1.664 0.303,2.897c1.213,1.233 2.973,1.11 6.127,1.665c3.154,0.555 3.033,0.37 8.796,0.617c5.763,0.246 9.281,-0.309 13.103,-0.802c3.821,-0.493 6.005,-1.603 8.25,-3.514c1.185,-1.01 2.183,-4.254 4.61,-6.782c2.426,-2.528 5.459,-6.535 6.855,-8.261c1.395,-1.727 0.727,-3.514 -0.061,-4.316c-0.789,-0.801 -3.518,-4.007 -5.642,-5.98c-2.123,-1.973 -5.702,-6.042 -8.128,-8.447c-2.427,-2.404 -6.43,-5.548 -8.189,-6.905c-1.76,-1.356 -3.155,0.617 -3.155,0.617Zm6.989,-8.83c-0.543,0.711 0.078,1.618 0.738,2.447c0.66,0.828 1.708,1.894 3.377,4.182c1.67,2.289 2.757,4.262 4.31,6.313c1.553,2.052 5.125,5.288 6.755,7.34c1.631,2.051 3.184,2.683 5.979,5.445c2.795,2.762 3.921,0.276 5.086,-0.908c1.164,-1.184 1.669,-2.643 3.377,-4.261c1.708,-1.618 2.33,-2.92 3.65,-4.419c1.32,-1.5 2.329,-2.841 3.804,-4.42c1.476,-1.578 2.291,-3.472 3.766,-4.853c1.475,-1.381 2.64,-2.88 4.154,-4.538c1.514,-1.657 0.971,-5.05 1.048,-6.352c0.078,-1.302 0.233,-6.274 0.311,-8.247c0.078,-1.973 -0.621,-6.668 -0.621,-8.483c-0,-1.815 -0.582,-2.368 -1.01,-3.315c-0.457,-1.015 -1.747,-0.118 -2.872,0.316c-1.126,0.434 -1.942,0.631 -3.727,0.947c-1.786,0.316 -2.136,0.592 -3.456,1.46c-1.32,0.868 -3.339,1.302 -5.474,2.446c-2.135,1.145 -2.912,0.513 -4.659,1.421c-1.747,0.907 -3.532,1.499 -5.396,2.565c-1.863,1.065 -2.989,1.617 -4.814,2.88c-1.825,1.263 -2.795,1.973 -4.736,3.235c-1.942,1.263 -3.96,3.591 -5.436,4.972c-1.475,1.381 -3.024,2.352 -4.154,3.827Zm15.516,104.391c-3.336,-0.123 -4.124,0.308 -7.946,0.246c-3.822,-0.061 -7.037,0 -11.404,-0.123c-4.368,-0.123 -8.19,0.555 -12.497,0.555c-4.307,0 -5.216,-0.616 -10.251,-0.616c-5.035,-0 -8.736,0.123 -11.829,0.123c-3.094,-0 -3.397,3.391 -3.519,5.795c-0.121,2.405 0.364,6.782 0.425,10.049c0.061,3.268 0.364,5.056 0.971,9.125c0.606,4.069 1.213,7.583 1.819,11.159c0.607,3.576 2.184,8.2 3.761,12.515c1.578,4.316 1.517,6.227 3.64,10.05c2.123,3.822 4.246,2.651 5.945,2.651c1.698,-0 9.22,-0 14.013,0.061c4.792,0.062 10.979,-0.431 14.012,-0.431c3.033,-0 2.063,-1.11 2.791,-3.329c0.728,-2.22 0.667,-4.254 1.274,-6.659c0.606,-2.404 1.941,-7.028 3.093,-11.097c1.153,-4.069 1.517,-6.535 2.73,-9.495c1.213,-2.959 1.274,-4.5 2.305,-7.891c1.031,-3.391 1.153,-5.672 2.305,-10.234c1.153,-4.563 0.728,-5.056 1.517,-8.632c0.788,-3.576 -3.155,-3.822 -3.155,-3.822Zm-14.376,65.29c-2.002,0.185 -4.732,0.185 -7.825,0.308c-3.094,0.123 -7.34,-0.308 -11.708,-0.308c-4.368,-0 -7.583,0.061 -9.099,0.061c-1.517,0 -0.728,2.466 -0,3.699c0.728,1.233 0.849,1.85 2.062,4.316c1.213,2.466 2.305,4.501 3.458,7.522c1.152,3.021 1.152,2.651 2.305,5.117c1.153,2.466 2.548,3.884 4.004,6.473c1.456,2.59 3.033,5.487 4.61,8.015c1.577,2.528 0.849,0.863 5.338,5.487c4.489,4.624 6.006,1.48 8.371,-0.37c2.366,-1.849 2.851,-3.144 5.217,-5.117c2.366,-1.973 5.52,-5.549 7.704,-7.645c2.184,-2.096 3.518,-4.5 4.61,-6.905c1.092,-2.404 -1.516,-4.809 -3.518,-7.152c-2.002,-2.342 -4.125,-3.945 -6.187,-5.548c-2.063,-1.603 -3.519,-3.453 -5.581,-6.166c-2.063,-2.712 -3.761,-1.787 -3.761,-1.787Zm73.096,-62.392c0.122,2.527 1.456,6.658 2.366,9.247c0.91,2.59 1.577,3.761 2.548,7.337c0.971,3.576 2.669,8.076 3.397,11.529c0.728,3.452 2.062,8.57 3.276,12.454c1.213,3.884 2.426,7.891 4.003,11.714c1.577,3.822 4.307,4.069 7.098,4.624c2.79,0.554 11.465,0.678 20.746,0.678c9.281,-0 8.735,-7.09 9.827,-9.556c1.092,-2.466 2.123,-8.57 2.972,-11.961c0.849,-3.391 1.517,-7.152 2.184,-10.604c0.667,-3.453 2.123,-11.344 2.912,-14.427c0.788,-3.082 1.395,-5.672 1.638,-11.097c0.242,-5.426 -7.28,-5.672 -9.524,-5.734c-2.245,-0.061 -8.432,0.124 -13.649,-0.061c-5.217,-0.185 -13.103,0.801 -17.956,1.171c-4.852,0.37 -7.4,0.308 -10.919,0.185c-3.518,-0.123 -5.58,0.431 -8.856,0.493c-3.276,0.062 -2.063,4.008 -2.063,4.008Zm56.85,-47.354c-1.395,-3.761 -6.701,-3.207 -8.885,-3.331c-2.184,-0.123 -7.219,0.309 -10.009,0.37c-2.79,0.062 -3.458,-0.246 -6.066,-0.37c-2.609,-0.123 -6.248,1.11 -10.858,1.172c-4.611,0.061 -5.824,5.425 -6.37,7.275c-0.546,1.849 -1.274,2.527 -2.123,4.13c-0.849,1.603 -0.607,2.836 -1.699,6.166c-1.091,3.329 -1.819,4.13 -2.851,6.411c-1.031,2.282 -1.395,3.885 -2.547,6.166c-1.153,2.281 -1.214,2.651 -3.276,6.596c-2.063,3.946 1.759,3.33 1.759,3.33c0,-0 0.607,-0.185 4.368,-0c3.761,0.185 4.974,-0.309 10.069,-0.185c5.096,0.123 13.103,-0.678 17.835,-0.678c4.731,-0 9.706,-0.864 11.465,-1.233c1.759,-0.37 5.459,-1.172 7.34,-1.234c1.88,-0.061 5.823,-1.048 6.915,-2.034c1.092,-0.986 0.728,-4.932 0.364,-7.645c-0.364,-2.713 -1.092,-5.919 -1.577,-9.063c-0.485,-3.144 -1.456,-5.733 -2.063,-9.124c-0.606,-3.391 -0.799,-4.047 -1.791,-6.719Zm-89.061,145.874c0,-0 -4.125,-3.268 -6.187,-4.747c-2.063,-1.48 -4.125,-3.206 -6.491,-5.179c-2.366,-1.973 -6.612,-1.233 -7.886,-0.062c-1.274,1.172 -2.548,2.959 -5.035,4.932c-2.487,1.973 -4.003,4.254 -6.066,6.535c-2.062,2.282 -3.033,3.761 -6.126,7.275c-3.094,3.515 0.303,4.439 1.88,5.796c1.577,1.356 3.943,3.082 6.915,4.994c2.973,1.911 5.278,2.774 7.704,4.315c2.427,1.542 4.793,2.466 8.918,4.069c4.124,1.603 7.521,3.206 11.1,4.069c3.579,0.863 3.034,-2.342 3.519,-4.932c0.485,-2.589 0.485,-5.487 0.91,-10.727c0.424,-5.241 -0.122,-8.077 -0.061,-11.529c0.061,-3.453 -3.094,-4.809 -3.094,-4.809Zm76.737,-36.375c-4.671,-0.37 -8.554,-0.432 -12.011,-0.74c-3.458,-0.308 -7.219,0.123 -12.193,-0.431c-4.974,-0.555 -6.976,2.404 -8.614,4.007c-1.638,1.603 -3.7,4.501 -5.823,6.782c-2.124,2.281 -2.973,2.404 -2.973,6.597c0,4.192 1.153,5.425 2.305,7.768c1.153,2.342 3.701,4.315 5.46,6.165c1.759,1.849 3.033,3.267 8.068,8.076c5.035,4.809 7.643,-0.616 9.159,-2.651c1.517,-2.034 4.247,-5.733 6.673,-9.063c2.427,-3.329 4.853,-7.521 6.309,-10.295c1.456,-2.775 3.336,-6.166 5.641,-10.79c2.306,-4.624 -2.001,-5.425 -2.001,-5.425Zm-14.759,-157.651c-2.791,2.281 -5.278,4.069 -7.583,6.042c-2.305,1.973 -5.399,3.453 -7.158,4.994c-1.759,1.541 -6.187,4.809 -8.978,7.46c-2.79,2.651 -0.546,4.747 0.182,6.042c0.728,1.294 2.669,4.315 4.428,6.905c1.76,2.589 4.247,5.179 7.28,7.768c3.033,2.589 4.731,1.418 6.854,1.356c2.124,-0.061 3.822,-0.678 8.432,-0.739c4.611,-0.062 7.401,-0.124 10.434,-0.247c3.033,-0.123 5.52,-0.555 6.248,-1.048c0.728,-0.493 2.123,-0.802 2.912,-1.418c0.789,-0.617 -0.485,-3.083 -1.153,-4.686c-0.667,-1.603 -2.305,-5.055 -3.275,-7.09c-0.971,-2.034 -1.941,-4.069 -3.033,-6.227c-1.092,-2.157 -2.487,-5.178 -3.397,-7.09c-0.91,-1.911 -3.033,-4.624 -4.125,-6.411c-1.092,-1.788 -2.487,-2.713 -3.943,-5.179c-1.456,-2.466 -4.125,-0.432 -4.125,-0.432Zm-55.454,-2.561c-2.15,-2.532 -4.099,1.033 -5.031,2.532c-0.932,1.5 -2.834,2.762 -4.154,4.814c-1.32,2.052 -2.99,3.236 -4.504,5.09c-1.514,1.855 -2.135,2.802 -3.377,4.538c-1.243,1.736 -2.369,2.486 -3.844,4.616c-1.475,2.131 -2.213,2.96 -4.154,4.972c-1.941,2.012 -3.106,2.959 -4.659,4.932c-1.553,1.973 -2.562,3.236 -4.425,5.209c-1.864,1.972 -2.64,3.63 -4.232,5.642c-1.592,2.012 -2.757,3.038 -2.757,4.814c0,1.775 0.738,4.379 1.398,5.958c0.66,1.578 1.436,3.63 2.174,5.761c0.738,2.13 1.941,4.932 2.795,7.852c0.854,2.919 1.825,5.09 2.834,7.496c1.01,2.407 2.33,7.024 2.951,8.642c0.621,1.617 2.446,5.997 3.222,8.049c0.777,2.052 1.786,4.932 1.709,6.866c-0.078,1.933 -0.855,3.511 -1.32,5.445c-0.466,1.933 -0.35,3.985 -1.204,6.905c-0.854,2.92 -0.388,2.92 -1.203,5.642c-0.816,2.723 -1.165,4.261 -2.058,7.536c-0.893,3.275 -1.359,4.025 -2.562,7.774c-1.204,3.748 -0.855,4.774 -1.592,7.575c-0.738,2.802 -1.242,4.696 -2.058,7.339c-0.815,2.644 -1.63,4.933 -2.484,7.774c-0.855,2.84 0.232,4.892 1.009,6.273c0.776,1.381 2.252,2.092 3.843,4.064c1.592,1.973 2.019,2.881 4.155,5.011c2.135,2.131 2.717,2.92 4.736,4.854c2.019,1.933 2.834,2.959 4.426,4.458c1.591,1.5 3.067,3.236 4.814,5.327c1.747,2.091 5.047,4.262 7.104,6.116c2.058,1.855 2.265,1.692 6.096,5.406c2.523,2.446 4.309,-0 5.047,-0.711c0.737,-0.71 1.436,-1.42 2.601,-2.485c1.164,-1.066 1.397,-1.5 3.339,-3.63c1.941,-2.131 4.154,-4.341 6.367,-6.59c2.212,-2.249 2.95,-3.669 4.969,-5.761c2.019,-2.091 3.339,-4.024 5.785,-6.628c2.445,-2.605 3.765,-4.735 5.939,-7.3c2.175,-2.565 0.971,-0.71 3.378,-4.459c2.407,-3.748 0.971,-5.563 0.738,-6.629c-0.233,-1.065 -0.621,-2.643 -1.281,-5.011c-0.66,-2.367 -1.67,-5.09 -2.175,-7.497c-0.504,-2.406 -1.242,-4.221 -2.135,-7.496c-0.893,-3.275 -1.863,-6.274 -2.252,-8.129c-0.388,-1.854 -0.737,-2.446 -1.863,-5.8c-1.126,-3.354 -1.669,-5.169 -2.679,-8.01c-1.009,-2.841 -1.397,-4.261 -2.019,-6.905c-0.621,-2.643 -1.164,-4.064 -1.242,-5.997c-0.078,-1.934 0.311,-3.157 1.204,-4.814c0.892,-1.657 1.358,-3.038 2.251,-4.972c0.893,-1.933 0.932,-2.209 2.058,-4.498c1.126,-2.288 0.932,-2.446 2.019,-4.932c1.087,-2.486 1.553,-5.09 2.678,-7.221c1.126,-2.13 1.786,-4.774 2.912,-7.497c1.126,-2.722 1.359,-3.63 2.524,-6.234c1.164,-2.604 2.174,-5.524 3.144,-7.773c0.971,-2.249 0.427,-4.498 -1.087,-5.84c-1.514,-1.341 -1.902,-2.288 -3.649,-4.379c-1.747,-2.092 -1.825,-2.131 -3.844,-4.499c-2.018,-2.367 -2.95,-3.275 -4.736,-5.326c-1.786,-2.052 -3.494,-3.828 -5.125,-5.524c-1.63,-1.697 -3.61,-3.67 -5.59,-5.88c-1.98,-2.209 -2.562,-3.314 -4.115,-5.247c-1.553,-1.934 -3.727,-3.828 -5.241,-5.603c-1.515,-1.776 -5.568,-6.005 -5.568,-6.005Zm-34.443,42.397c-0,-0 2.809,-2.314 4.407,-4.283c1.598,-1.969 3.826,-3.839 5.279,-5.71c1.453,-1.87 3.1,-3.593 4.602,-5.415c1.501,-1.821 3.148,-3.396 4.988,-5.611c1.841,-2.215 2.47,-2.708 4.505,-5.514c2.034,-2.805 2.131,-3.101 3.874,-5.02c1.744,-1.92 2.18,-2.166 3.294,-3.446c1.114,-1.28 1.695,-2.757 2.325,-2.757c0.629,0 2.76,2.609 3.874,3.987c1.114,1.379 3.342,3.643 4.747,5.317c1.404,1.673 2.034,2.51 4.117,4.775c2.082,2.264 4.407,4.528 5.618,6.054c1.211,1.526 2.179,3.052 3.971,4.726c1.793,1.673 3.246,3.692 4.747,5.316c1.501,1.625 3.1,3.249 4.359,4.775c1.259,1.526 2.519,2.806 3.245,3.396c0.727,0.591 1.986,1.822 0.581,4.923c-1.404,3.101 -2.325,5.267 -2.906,6.941c-0.581,1.673 -1.065,3.495 -1.986,5.611c-0.92,2.117 -1.84,5.071 -2.76,6.892c-0.92,1.821 -1.211,2.904 -2.228,5.415c-1.017,2.51 -1.066,4.479 -2.083,6.35c-1.017,1.87 -1.453,2.806 -2.034,4.135c-0.581,1.329 -1.066,2.707 -1.695,3.888c-0.63,1.182 -1.163,3.2 -1.889,4.234c-0.727,1.033 -1.017,0.886 -3.003,1.033c-1.986,0.148 -3.923,0.148 -6.829,0.148c-2.906,0 -4.989,0.049 -7.701,-0.049c-2.712,-0.099 -5.715,-0.099 -8.621,-0.099c-2.906,0 -5.377,0.247 -6.975,0.148c-1.598,-0.098 -3.487,0.345 -4.601,-1.92c-1.114,-2.264 -1.937,-5.217 -3.197,-8.417c-1.259,-3.2 -2.179,-6.35 -3.196,-9.648c-1.017,-3.298 -1.938,-5.218 -2.809,-7.581c-0.872,-2.363 -1.599,-4.578 -2.374,-7.236c-0.775,-2.658 -1.19,-3.485 -1.937,-5.612c-1.453,-4.135 -3.148,-6.399 0.291,-9.746Zm2.38,0.44c-3.195,3.11 -1.814,5.313 -0.464,9.155c0.695,1.976 1.08,2.744 1.8,5.213c0.72,2.47 1.395,4.528 2.205,6.723c0.81,2.196 1.665,3.979 2.61,7.043c0.945,3.065 1.8,5.992 2.97,8.965c1.17,2.972 2.081,6.9 3.116,9.004c1.035,2.104 2.79,1.692 4.275,1.784c1.485,0.091 3.78,-0.138 6.48,-0.138c2.7,0 5.489,0 8.009,0.092c2.52,0.091 4.455,0.046 7.155,0.046c2.7,-0 4.5,-0 6.345,-0.138c1.845,-0.137 2.115,0 2.79,-0.96c0.675,-0.961 1.898,-4.019 2.483,-5.117c0.585,-1.098 1.035,-2.378 1.575,-3.613c0.54,-1.235 0.945,-2.104 1.89,-3.842c0.945,-1.738 0.99,-3.567 1.935,-5.9c0.945,-2.332 1.215,-3.338 2.07,-5.03c0.855,-1.693 1.71,-4.437 2.565,-6.403c0.855,-1.967 1.305,-3.659 1.845,-5.214c0.54,-1.555 1.395,-3.567 2.7,-6.449c1.305,-2.881 -0.544,-4.123 -1.219,-4.672c-0.675,-0.549 -1.845,-1.738 -3.015,-3.155c-1.17,-1.418 -2.655,-2.928 -4.05,-4.437c-1.395,-1.509 -2.745,-3.384 -4.41,-4.939c-1.665,-1.555 -2.565,-2.973 -3.69,-4.391c-1.125,-1.417 -3.285,-3.521 -5.22,-5.625c-1.935,-2.104 -2.52,-2.881 -3.825,-4.436c-1.305,-1.555 -3.375,-3.659 -4.41,-4.94c-1.035,-1.28 -3.015,-3.704 -3.6,-3.704c-0.585,-0 -1.125,1.372 -2.16,2.561c-1.035,1.189 -1.44,1.418 -3.06,3.201c-1.62,1.784 -1.71,2.058 -3.6,4.665c-1.89,2.607 -2.475,3.065 -4.185,5.123c-1.71,2.058 -3.24,3.521 -4.635,5.213c-1.395,1.693 -3.653,3.392 -5.003,5.13c-1.35,1.738 -2.692,3.377 -4.177,5.206c-1.485,1.83 -4.095,3.979 -4.095,3.979Zm11.908,55.453c-0,-0 0.807,-2.21 2.391,-2.273c1.584,-0.063 5.777,0.095 7.734,0.158c1.956,0.063 5.062,-0.221 6.708,-0.221c1.646,-0 5.156,0.284 7.734,0.221c2.578,-0.063 5,-0.253 7.05,-0.19c2.05,0.063 4.286,0 4.783,1.168c0.497,1.168 1.719,5.434 2.265,7.653c0.545,2.22 3.942,11.714 4.367,13.564c0.425,1.85 1.577,5.734 2.305,8.323c0.728,2.589 1.577,4.871 2.184,7.337c0.607,2.466 1.82,5.98 2.487,8.631c0.667,2.651 1.031,4.192 1.577,6.35c0.546,2.158 1.638,5.487 -0.364,7.83c-2.001,2.343 -2.79,3.144 -4.671,5.549c-1.88,2.404 -2.79,3.452 -4.67,5.548c-1.881,2.096 -2.791,3.576 -4.671,5.549c-1.881,1.973 -2.002,2.466 -4.065,4.562c-2.062,2.096 -3.215,3.268 -4.671,4.932c-1.455,1.665 -2.183,2.898 -4.428,5.118c-2.244,2.219 -1.72,1.884 -2.937,2.641c-1.217,0.758 -2.907,1.591 -4.721,-0.303c-1.814,-1.894 -3.131,-2.853 -5.243,-5.101c-2.112,-2.247 -5.317,-5.303 -7.553,-7.601c-2.236,-2.298 -3.677,-2.828 -5.317,-4.874c-1.64,-2.045 -2.684,-2.98 -3.976,-4.141c-1.292,-1.162 -2.758,-2.5 -3.727,-3.536c-0.969,-1.035 -1.813,-1.843 -2.758,-2.878c-0.944,-1.036 -2.062,-2.071 -2.161,-3.965c-0.1,-1.894 -0.323,-3.056 0.025,-4.798c0.347,-1.743 0.993,-5.177 1.788,-8.611c0.796,-3.435 1.963,-7.046 2.858,-10.026c0.894,-2.979 1.441,-5.328 2.509,-8.939c1.069,-3.611 2.361,-6.945 3.032,-10.303c0.671,-3.359 1.167,-4.874 1.813,-7.475c0.647,-2.601 1.812,-6.642 2.323,-9.899Zm1.179,1.294c-0.486,3.107 -1.598,7.516 -2.215,9.997c-0.616,2.481 -1.09,3.927 -1.73,7.13c-0.64,3.204 -1.872,6.383 -2.891,9.828c-1.019,3.445 -1.541,5.685 -2.394,8.527c-0.853,2.843 -1.967,6.287 -2.726,9.563c-0.758,3.276 -1.374,6.552 -1.706,8.214c-0.332,1.662 -0.118,2.77 -0.024,4.577c0.095,1.806 0.995,2.782 1.896,3.77c0.901,0.987 1.707,1.758 2.631,2.746c0.924,0.987 2.323,2.264 3.555,3.372c1.232,1.108 2.228,1.999 3.792,3.95c1.564,1.952 2.939,2.457 5.072,4.649c2.133,2.192 5.19,5.107 7.205,7.251c2.015,2.144 3.271,3.059 5.001,4.866c1.73,1.806 3.141,1.115 4.302,0.393c1.162,-0.723 0.661,-0.403 2.802,-2.52c2.141,-2.117 2.835,-3.293 4.224,-4.881c1.389,-1.588 2.488,-2.705 4.455,-4.705c1.968,-1.999 2.083,-2.47 3.877,-4.352c1.794,-1.881 2.662,-3.293 4.456,-5.292c1.793,-2 2.661,-3 4.455,-5.293c1.794,-2.294 2.485,-2.996 4.394,-5.231c1.91,-2.234 0.929,-5.253 0.408,-7.311c-0.521,-2.059 -0.868,-3.529 -1.505,-6.057c-0.636,-2.529 -1.793,-5.881 -2.372,-8.234c-0.579,-2.352 -1.389,-4.528 -2.083,-6.998c-0.694,-2.47 -1.794,-6.175 -2.199,-7.939c-0.405,-1.764 -3.645,-10.821 -4.166,-12.938c-0.521,-2.117 -1.686,-6.741 -2.16,-7.855c-0.474,-1.114 -2.546,-1.116 -4.501,-1.176c-1.955,-0.06 -4.266,0.12 -6.725,0.18c-2.459,0.061 -5.807,-0.21 -7.377,-0.21c-1.57,-0 -4.533,0.271 -6.399,0.21c-1.866,-0.06 -5.866,-0.21 -7.377,-0.15c-1.511,0.06 -1.975,1.919 -1.975,1.919Zm20.777,-130.936l-0.116,24.661c-0,-0 -0.039,1.657 1.009,2.762c1.048,1.104 6.872,7.378 7.804,8.325c0.931,0.947 3.571,3.591 4.736,4.656c1.165,1.066 4.659,5.13 6.018,5.998c1.358,0.868 3.804,4.34 9.628,0.434c5.823,-3.907 5.474,-3.591 7.182,-5.09c1.708,-1.5 3.416,-3.236 4.969,-4.696c1.553,-1.46 3.339,-2.762 4.776,-4.103c1.436,-1.342 3.067,-2.999 3.882,-3.709c0.815,-0.711 2.562,-2.17 0.388,-4.183c-2.174,-2.012 -3.416,-3.156 -5.552,-5.05c-2.135,-1.894 -4.425,-3.749 -6.172,-5.248c-1.748,-1.5 -3.184,-2.881 -5.047,-4.262c-1.864,-1.381 -3.417,-2.564 -5.63,-3.748c-2.213,-1.184 -3.183,-1.736 -4.775,-2.644c-1.592,-0.907 -2.174,-1.46 -4.309,-2.13c-2.136,-0.671 -2.99,-1.579 -5.707,-2.486c-2.718,-0.908 -3.999,-1.066 -6.523,-1.539c-2.523,-0.474 -6.716,-2.091 -6.561,2.052Zm-84.333,83.056c-1.395,3.576 -1.88,7.213 -2.548,9.803c-0.667,2.589 -1.092,3.576 -2.123,7.398c-1.031,3.822 -1.092,6.289 -1.88,9.926c-0.789,3.638 -0.971,4.439 -1.456,8.631c-0.486,4.193 1.759,2.96 2.972,3.083c1.213,0.123 2.548,0.432 6.976,0.37c4.428,-0.062 8.978,-0.432 11.404,-0.37c2.427,0.062 5.885,0.432 9.221,0.37c3.336,-0.062 10.312,0.185 13.406,0.123c3.094,-0.061 7.886,-0.308 10.009,-0.37c2.123,-0.061 2.548,-3.391 2.548,-5.918c-0,-2.528 -0.607,-4.994 -1.699,-6.412c-1.092,-1.418 -1.698,-4.994 -2.426,-7.46c-0.728,-2.466 -1.577,-5.117 -2.487,-8.015c-0.91,-2.898 -3.276,-8.015 -4.55,-11.097c-1.274,-3.083 -4.489,-3.145 -6.976,-3.206c-2.487,-0.062 -4.549,0.061 -6.854,-0.062c-2.306,-0.123 -3.034,0.123 -7.219,0.123c-4.186,0 -6.37,0.37 -10.616,0.309c-4.246,-0.062 -5.702,2.774 -5.702,2.774Zm101.789,133.107c-3.518,3.946 -6.915,7.337 -9.645,9.865c-2.73,2.527 -4.489,3.945 -5.823,5.24c-1.335,1.295 -2.791,1.788 -3.155,4.192c-0.364,2.405 0.546,5.796 0.304,8.632c-0.243,2.836 0.485,4.87 0.788,10.419c0.304,5.549 1.881,5.302 5.399,4.994c3.518,-0.309 8.614,-2.096 12.375,-3.514c3.761,-1.418 6.673,-3.268 11.95,-6.412c5.278,-3.145 9.342,-7.275 11.404,-9.31c2.063,-2.034 0.425,-3.822 -0.97,-5.302c-1.395,-1.48 -4.064,-5.425 -7.401,-9.124c-3.336,-3.7 -6.976,-6.72 -9.645,-9.556c-2.669,-2.836 -5.581,-0.124 -5.581,-0.124Zm-27.681,48.753c-0,-0 3.275,1.294 6.126,1.171c2.851,-0.123 4.732,-0.678 5.642,-0.987c0.91,-0.308 1.456,-0.431 1.213,0.74c-0.243,1.172 -4.075,18.941 -5.035,33.847c-0.424,6.597 -0.303,8.57 -0.91,8.57c-0.606,-0 0.122,0.678 -1.274,-8.878c-1.395,-9.556 -4.489,-26.449 -5.641,-30.148c-1.153,-3.699 -1.395,-4.809 -0.121,-4.315Zm72.226,-240.919c0,-0 2.305,-2.405 3.337,-3.515c1.031,-1.109 2.972,-1.972 3.943,-3.02c0.97,-1.049 2.244,-1.788 2.911,-2.035c0.668,-0.247 1.699,-0.062 3.337,0.123c1.638,0.185 4.003,0.494 6.854,0.74c2.851,0.247 5.703,0.123 7.704,0.123c2.002,0 3.761,0 4.004,0.432c0.243,0.432 -0.789,3.144 -1.153,4.377c-0.364,1.233 -0.97,3.391 -1.516,5.734c-0.546,2.343 -1.031,5.117 -1.274,6.72c-0.243,1.603 -0.728,4.131 -1.516,4.747c-0.789,0.617 -1.76,0.925 -3.398,2.158c-1.637,1.233 -2.972,2.096 -4.61,3.329c-1.638,1.233 -2.608,2.22 -3.639,3.145c-1.032,0.924 -1.032,1.787 -2.124,1.541c-1.091,-0.247 -1.334,-1.603 -2.244,-3.144c-0.91,-1.542 -2.184,-3.946 -3.397,-6.042c-1.213,-2.096 -2.244,-3.514 -3.276,-5.364c-1.031,-1.85 -2.062,-3.391 -3.033,-4.562c-0.97,-1.172 -2.851,-2.405 -2.79,-3.206c0.061,-0.802 1.88,-2.281 1.88,-2.281Zm-128.961,-1.656c0,-0 4.368,2.651 4.428,3.452c0.061,0.802 -1.577,2.282 -2.547,3.453c-0.971,1.171 -2.123,3.021 -3.155,4.871c-1.031,1.849 -2.183,2.712 -3.397,4.808c-1.213,2.097 -2.487,4.501 -3.397,6.042c-0.91,1.542 -2.426,3.638 -3.518,3.884c-1.092,0.247 -1.092,-0.616 -2.123,-1.541c-1.031,-0.925 -2.002,-1.911 -3.64,-3.144c-1.638,-1.233 -2.972,-2.096 -4.61,-3.329c-1.638,-1.233 -2.608,-1.542 -3.397,-2.158c-0.789,-0.617 -1.577,-3.329 -2.305,-6.289c-0.387,-1.573 -1.213,-4.747 -1.759,-7.09c-0.546,-2.343 -1.153,-4.5 -1.517,-5.733c-0.364,-1.233 -1.395,-3.946 -1.152,-4.378c0.242,-0.431 2.001,-0.431 4.003,-0.431c2.002,-0 4.853,-0.247 7.704,-0.493c2.851,-0.247 4.368,-0.432 6.006,-0.617c1.637,-0.185 3.033,-0.185 3.7,0.062c0.667,0.246 2.487,0.616 3.458,1.664c0.97,1.048 2.851,2.343 3.882,3.453c1.031,1.11 3.336,3.514 3.336,3.514Zm128.267,206.932c0,0 -1.82,-1.479 -1.88,-2.281c-0.061,-0.801 1.819,-2.034 2.79,-3.206c0.971,-1.171 2.002,-2.713 3.033,-4.562c1.031,-1.85 2.063,-3.268 3.276,-5.364c1.213,-2.096 2.487,-4.5 3.397,-6.042c0.91,-1.541 1.152,-2.897 2.244,-3.144c1.092,-0.247 1.989,0.144 3.23,0.746c0.789,0.382 2.629,1.644 4.58,2.244c1.444,0.444 3.124,1.634 4.762,2.867c1.638,1.233 2.76,2.62 3.549,3.237c0.789,0.616 2.483,4.008 2.981,5.548c0.631,1.949 1.474,4.023 2.845,6.366c1.211,2.069 2.539,5.24 2.903,6.473c0.364,1.233 0.983,3.459 -4.786,3.962c-0.487,0.042 -2.002,0.431 -4.004,0.431c-2.002,0 -4.853,-0.123 -7.704,0.123c-2.851,0.247 -5.217,0.555 -6.854,0.74c-1.638,0.185 -2.669,0.37 -3.337,0.124c-0.667,-0.247 -2.775,-0.679 -3.746,-1.727c-0.97,-1.048 -2.911,-1.911 -3.943,-3.021c-1.031,-1.109 -3.336,-3.514 -3.336,-3.514Zm-131.673,-2.069c0,-0 -2.305,2.404 -3.336,3.514c-1.032,1.109 -2.973,1.973 -3.943,3.021c-0.971,1.048 -3.079,1.479 -3.746,1.726c-0.667,0.247 -1.699,0.062 -3.336,-0.123c-1.638,-0.185 -4.004,-0.494 -6.855,-0.74c-2.851,-0.247 -5.702,-0.124 -7.704,-0.124c-2.002,0 -3.516,-0.389 -4.004,-0.431c-5.769,-0.503 -5.15,-2.728 -4.786,-3.961c0.364,-1.233 1.692,-4.404 2.903,-6.474c1.371,-2.342 2.214,-4.417 2.845,-6.365c0.499,-1.541 2.193,-4.932 2.981,-5.549c0.789,-0.616 1.911,-2.004 3.549,-3.237c1.638,-1.233 3.318,-2.423 4.762,-2.867c1.951,-0.599 3.791,-1.861 4.58,-2.244c1.241,-0.601 2.138,-0.992 3.23,-0.746c1.092,0.247 1.334,1.603 2.244,3.145c0.91,1.541 2.184,3.945 3.397,6.042c1.214,2.096 2.245,3.514 3.276,5.363c1.031,1.85 2.063,3.391 3.033,4.563c0.971,1.171 2.851,2.404 2.791,3.205c-0.061,0.802 -1.881,2.282 -1.881,2.282Zm-185.251,-101.237l51.486,-19.344c-0,0 -0.683,19.189 0.227,36.452l-51.713,-17.108Zm253.029,253.485l-20.743,-52.711c0,0 20.578,0.699 39.089,-0.233l-18.346,52.944Zm258.971,-259.01l-54.928,22.226c0.909,-17.263 -0.562,-42.864 -0.562,-42.864l55.49,20.638Zm-278.95,-198.659l21.61,-54.331l19.412,54.562l-41.022,-0.231Zm3.488,-2.352l34.197,0.194l-16.182,-45.854l-18.015,45.66Z" style="fill:#546180;"/></g></g></svg>